# xmcd
#
# Track frame offsets:
#	150
#	13007
#	25841
#	43461
#	52580
#	64646
#	76112
#	89592
#	99613
#	110828
#
# Disc length: 1668 seconds
#
# Revision: 1
# Processed by: cddbd v1.5.2PL0 Copyright (c) Steve Scherf et al.
# Submitted via: audiograbber 1.83.01
#
DISCID=7a06820a
DTITLE=Slimkid3 and DJ Nu-Mark - Slimkid3 and DJ Nu-Mark
DYEAR=2014
DGENRE=Rap
TTITLE0=Work Hard (featuring K-Natural)
TTITLE1=Let Me Hit
TTITLE2=I Know Didn't I (featuring Darondo)
TTITLE3=Fade To Black (featuring J-Live)
TTITLE4=No Pity Party
TTITLE5=What Are Words For
TTITLE6=King (featuring Diamond D. and K-Natural)
TTITLE7=Bom Bom Fiya
TTITLE8=Godzilla Or Gamera
TTITLE9=Bouillon (featuring Del and Murs)
EXTD=
EXTT0=
EXTT1=
EXTT2=
EXTT3=
EXTT4=
EXTT5=
EXTT6=
EXTT7=
EXTT8=
EXTT9=
PLAYORDER=
